<svg xmlns="http://www.w3.org/2000/svg" viewBox="0 0 24 24" fill="none">
  <rect width="24" height="24" rx="4" fill="#4285F4" fill-opacity="0.1"/>
  <path d="M21.35 11.1h-9.17v2.73h6.51c-.33 1.56-1.56 2.95-3.24 3.5v2.88h5.15c3.01-2.77 4.75-6.86 4.75-11.75 0-.78-.07-1.53-.2-2.22z" fill="#4285F4"/>
  <path d="M12.18 20.5c2.75 0 5.06-.91 6.75-2.47l-5.15-2.88c-.94.63-2.15 1.01-3.6 1.01-2.78 0-5.13-1.88-5.97-4.4H1.83v3c1.74 3.46 5.3 5.74 9.47 5.74z" fill="#34A853"/>
  <path d="M6.21 11.76a5.79 5.79 0 010-3.68v-3H1.83a9.75 9.75 0 000 9.68l4.38-3z" fill="#FBBC05"/>
  <path d="M12.18 5.84c1.5 0 2.85.52 3.91 1.53l2.93-2.93C17.24 2.81 14.93 2 12.18 2 8.01 2 4.45 4.28 2.71 7.74l4.38 3c.84-2.52 3.19-4.4 5.97-4.4z" fill="#EA4335"/>
</svg>
