<svg xmlns="http://www.w3.org/2000/svg" viewBox="0 0 24 24" fill="none">
  <rect width="24" height="24" rx="4" fill="#10A37F" fill-opacity="0.1"/>
  <path d="M19.5 9.5a4.5 4.5 0 00-3.5-3.5 4.5 4.5 0 00-7.8-2 4.5 4.5 0 00-5.7 5.7 4.5 4.5 0 002 7.8 4.5 4.5 0 007.8 2 4.5 4.5 0 005.7-5.7 4.5 4.5 0 001.5-4.3zm-7.5-6a3 3 0 012.8 1.9L12 7 9.2 5.4A3 3 0 0112 3.5zm-5 2.8a3 3 0 012.8 0L12 9.2l-.1 3.2-2.7-1.5a3 3 0 01-2.2-4.4zm.5 7.8a3 3 0 010-2.8L10.3 12 7.5 13.6a3 3 0 01-3.6-2.2 3 3 0 013.6-3.6l.3.2zm5 6.4a3 3 0 01-2.8-1.9L12 17l2.8 1.6A3 3 0 0112 20.5zm5-2.8a3 3 0 01-2.8 0L14 14.8l.1-3.2 2.7 1.5a3 3 0 012.2 4.4zm-.5-7.8a3 3 0 010 2.8L13.7 12l2.8-1.6a3 3 0 013.6 2.2 3 3 0 01-3.6 3.6l-.3-.2z" fill="#10A37F"/>
</svg>
